<svg width="238" height="238" viewBox="0 0 238 238" fill="none" xmlns="http://www.w3.org/2000/svg">
<path d="M83.9505 63.614C89.4803 45.5208 112.523 40.1987 125.427 54.0343L184.231 117.082C197.136 130.918 190.223 153.535 171.789 157.792L87.7858 177.194C69.3518 181.452 53.2214 164.157 58.7512 146.064L83.9505 63.614Z" fill="#FFDC85"/>
<path fill-rule="evenodd" clip-rule="evenodd" d="M130.083 129.803C130.073 129.893 130.056 129.981 130.033 130.067C130.114 130.011 130.199 129.962 130.288 129.92C130.415 129.86 130.529 129.778 130.625 129.677C130.468 129.394 130.277 129.131 130.057 128.894C130.103 129.195 130.112 129.501 130.083 129.803Z" fill="white"/>
<path opacity="0.18" fill-rule="evenodd" clip-rule="evenodd" d="M115.972 102.374C114.684 106.169 113.099 109.873 111.632 113.614C109.348 119.435 107.436 125.41 105.316 131.292C103.209 137.14 101.353 143.05 99.6652 149.021L99.5687 149.363C100.961 150.883 102.515 152.247 104.202 153.432C105.805 147.675 107.162 141.855 108.667 136.072C107.183 136.278 106.452 134.539 107.179 133.542C107.121 133.336 107.107 133.12 107.136 132.908C107.165 132.695 107.238 132.492 107.349 132.308C107.356 132.297 107.364 132.285 107.372 132.274C107.246 130.916 107.125 128.52 108.025 127.19C108.087 126.886 108.155 126.583 108.229 126.285C108.451 125.456 109.357 125.036 110.145 125.156C109.918 125.122 109.699 125.048 109.499 124.935C109.317 124.831 109.157 124.692 109.03 124.525C108.903 124.359 108.81 124.169 108.758 123.966C108.705 123.763 108.694 123.552 108.725 123.344C108.755 123.137 108.827 122.938 108.936 122.759C109.118 122.471 109.383 122.246 109.695 122.112C110.007 121.978 110.353 121.941 110.687 122.007C110.736 121.996 110.779 121.967 110.83 121.955C110.961 121.922 111.097 121.907 111.232 121.908C111.451 121.666 111.738 121.495 112.056 121.42C112.407 121.319 112.782 121.343 113.117 121.487C115.504 114.818 118.26 108.27 120.948 101.696C119.274 101.789 117.611 102.016 115.974 102.376" fill="white"/>
<path opacity="0.18" fill-rule="evenodd" clip-rule="evenodd" d="M122.05 117.895C124.145 112.568 125.785 107.525 127.374 102.028C127.07 101.98 126.763 101.933 126.455 101.895C126.426 101.984 126.39 102.07 126.347 102.153C123.851 106.988 121.892 112.128 120.232 117.36C121.075 117.219 121.818 117.267 122.048 117.896" fill="white"/>
<path opacity="0.18" fill-rule="evenodd" clip-rule="evenodd" d="M130.565 102.712C129.061 107.908 127.375 113.066 125.442 118.12C125.745 118.167 126.029 118.3 126.259 118.504C126.489 118.707 126.656 118.972 126.741 119.267C126.923 119.382 127.078 119.535 127.198 119.715L127.722 118.748C130.288 113.999 132.858 109.249 135.494 104.536C133.905 103.783 132.253 103.173 130.556 102.712" fill="white"/>
<path fill-rule="evenodd" clip-rule="evenodd" d="M129.415 127.435C129.463 127.177 129.565 126.932 129.714 126.717C129.119 126.099 128.61 125.402 128.203 124.648L127.421 126.087C128.192 126.354 128.881 126.819 129.417 127.434" fill="white"/>
<path fill-rule="evenodd" clip-rule="evenodd" d="M130.624 129.676C130.468 129.394 130.278 129.132 130.059 128.896C130.104 129.196 130.111 129.5 130.083 129.801C130.073 129.891 130.056 129.979 130.032 130.065C130.112 130.009 130.197 129.96 130.285 129.918C130.412 129.859 130.526 129.776 130.622 129.675" fill="white"/>
<path fill-rule="evenodd" clip-rule="evenodd" d="M128.954 132.065C128.886 131.777 128.902 131.475 129.002 131.197C128.599 131.347 128.157 131.357 127.746 131.228C127.608 134.568 124.956 138.533 121.768 137.256C121.446 137.967 121.134 138.681 120.816 139.4C121.21 139.433 121.604 139.443 121.999 139.428C122.09 139.342 122.191 139.266 122.3 139.203C122.534 139.069 122.798 138.996 123.067 138.989C123.294 138.74 123.595 138.571 123.925 138.506C125.31 138.186 126.41 137.424 127.325 136.454C127.424 135.806 127.754 135.216 128.253 134.793C128.463 134.622 128.689 134.473 128.928 134.347C129.027 134.196 129.121 134.049 129.216 133.896C129.433 133.557 129.764 133.307 130.149 133.191C129.866 133.129 129.605 132.991 129.395 132.792C129.185 132.593 129.033 132.34 128.956 132.061" fill="white"/>
<path opacity="0.17" d="M126.372 87.2672L124.336 79.3498L115.028 80.0239L115.331 81.194C118.951 83.3261 122.647 85.3247 126.38 87.259" fill="white"/>
<path opacity="0.17" d="M115.894 83.3978L116.32 85.044C118.016 86.3202 119.836 87.4253 121.654 88.5327C123.693 89.7731 125.668 91.1008 127.69 92.3575L126.915 89.3597C123.197 87.453 119.511 85.4893 115.893 83.4002" fill="white"/>
<path opacity="0.17" d="M125.371 94.7222C122.797 93.0906 120.118 91.5412 117.554 89.8556L118.832 94.8082L130.13 101.831L128.841 96.8433C127.673 96.1484 126.517 95.442 125.371 94.7241" fill="white"/>
<path d="M122.824 113.668L122.828 113.684C128.011 114.082 132.682 117.33 136.33 122.359C133.432 116.464 128.191 113.815 122.828 113.667" fill="white"/>
<path d="M143.551 118.123C143.653 118.779 143.925 120.207 143.924 120.821C143.913 123.273 144.253 124.5 141.651 125.112C139.274 125.675 138.458 124.878 136.597 123.741C136.881 124.407 139.088 129.887 136.39 134.743C139.099 131.896 142.026 130.215 144.405 134.262C145.563 136.229 145.583 137.75 144.492 139.566C143.684 140.911 144.69 142.509 145.511 140.767C148.684 134.041 148.513 124.231 144.549 117.371C143.841 116.148 143.328 116.738 143.543 118.123" fill="white"/>
<path d="M99.3813 147.036C99.2574 146.837 99.2155 146.598 99.2646 146.37C99.3135 146.141 99.4494 145.94 99.6436 145.809C99.8432 145.68 100.085 145.632 100.319 145.676C100.553 145.721 100.761 145.853 100.899 146.047C104.701 151.285 112.484 155.191 120.82 155.999C121.454 156.059 105.132 156.586 99.3813 147.036Z" fill="white"/>
<path d="M144.478 143.338C144.708 142.893 144.477 142.377 144.113 142.267C143.748 142.156 143.309 142.421 143.085 142.865C140.786 147.408 134.825 152.927 127.651 154.905C127.103 155.056 139.163 153.578 144.48 143.345" fill="white"/>
<path d="M106.962 75.0697L104.474 75.0532L104.156 73.8204L106.643 73.8392L106.962 75.0697Z" fill="white"/>
<path d="M107.493 77.1206L105.005 77.1061L104.688 75.8732L107.174 75.8902L107.493 77.1206Z" fill="white"/>
<path d="M108.023 79.1762L105.535 79.1598L105.217 77.9269L107.703 77.9438L108.023 79.1762Z" fill="white"/>
<path d="M114.058 83.3107L110.367 83.2765L110.049 82.0456L113.74 82.0798L114.058 83.3107Z" fill="white"/>
<path d="M114.571 85.5888L110.88 85.5546L110.561 84.3241L114.253 84.3559L114.571 85.5888Z" fill="white"/>
<path d="M115.225 87.8285L111.533 87.7924L111.216 86.5615L114.907 86.5957L115.225 87.8285Z" fill="white"/>
<path d="M116.959 94.7598L113.864 95.3011L113.663 94.0454L116.438 93.5863L116.959 94.7598Z" fill="white"/>
<path d="M95.116 94.1039L94.4803 94.2677L97.4945 105.969L98.1303 105.805L95.116 94.1039Z" fill="white"/>
<path d="M95.5506 102.37L94.9148 102.534L95.9859 106.692L96.6217 106.528L95.5506 102.37Z" fill="white"/>
<path d="M97.8877 98.3166L94.555 100.488L94.3961 99.8712L97.7283 97.6982L97.8877 98.3166Z" fill="white"/>
<path d="M100.753 88.1926L99.9068 88.4106L100.568 90.9771L101.414 90.7591L100.753 88.1926Z" fill="white"/>
<path d="M101.587 91.6439L100.846 91.8348L101.507 94.4013L102.248 94.2104L101.587 91.6439Z" fill="white"/>
<path d="M99.0123 102.869L99.4634 108.992C99.4634 108.992 95.4169 116.055 95.2044 115.672C94.992 115.29 94.3038 112.185 94.3038 112.185L96.0149 110.975L94.1763 105.019L93.9478 104.281L95.2221 102.639L95.7671 104.524L99.0123 102.869Z" fill="white"/>
<path d="M128.214 157.46C112.629 161.473 96.7744 152.448 92.873 137.337C92.209 134.766 92.3798 131.899 93.1096 128.965C92.9227 133.962 94.1046 138.916 96.5279 143.29C97.7141 145.428 98.0582 143.876 97.8267 142.73C97.5467 141.348 97.4503 138.532 98.2244 137.355C99.6688 135.161 101.216 135.381 102.116 136.682C102.342 136.667 104.541 140.293 109.344 141.935C102.535 134.826 103.595 127.103 107.007 122.394C106.198 122.901 103.225 126.746 102.243 126.735C98.3492 126.7 99.229 120.997 99.9535 118.228C100.679 115.498 101.863 112.912 103.456 110.579L103.495 110.519C104.813 108.992 106.26 107.582 107.822 106.305L102.522 107.575L103.302 106.793L97.8161 84.9006L97.8702 84.8572L101.218 84.2907L105.557 101.035L105.649 101.014L105.656 101.045L106.091 100.899L106.195 100.875L108.463 100.114L103.937 102.265L104.725 105.317L112.082 102.765L103.613 69.9596L103.636 69.9356L112.125 70.5793L112.526 72.1401L110.531 73.686L113.151 74.5587L120.072 101.364L120.191 101.336L115.523 102.697L122.143 101.956L119.211 90.3868L121.114 90.0981L121.792 92.7214L120.523 92.9277L120.622 93.5602L121.952 93.3418L123.459 99.1779L124.095 99.0144L123.421 96.3985L125.599 96.1021L127.241 102.463L127.727 102.338C131.121 103.054 134.36 104.371 137.29 106.227C136.208 105.039 134.944 104.031 133.545 103.241L133.575 102.037L129.582 86.5363L138.326 86.9452L138.89 89.1259L138.476 89.883L132.994 89.7022L133.312 90.9351L138.706 91.0967L138.713 91.1261L139.356 91.7713L138.966 92.1033L138.977 92.1543L133.468 91.9799L133.786 93.2128L139.38 93.3946L139.916 93.8619L139.537 94.3193L139.553 94.3879L134.159 94.2264L134.476 95.4573L139.871 95.6188L139.879 95.6541L140.69 96.6057L134.859 96.5448L135.176 97.7737L141.127 97.8461L141.424 98.9971L135.601 98.988L135.919 100.219L141.741 100.226L144.805 112.095C143.989 111.114 143.139 110.182 142.292 109.27C142.292 109.27 147.86 116.375 149.411 122.786C153.097 137.951 143.806 153.457 128.222 157.474L128.214 157.46ZM89.7824 106.917L93.2599 106.527L94.3312 110.548L92.5877 111.653L93.0926 113.678L91.6256 114.056L89.7824 106.917ZM118.46 87.4041L120.349 87.1166L120.957 89.4729L119.056 89.7611L118.46 87.4041ZM117.616 84.0728L119.504 83.8434L120.187 86.4884L118.3 86.7734L117.616 84.0728ZM116.591 80.029L118.484 79.8935L119.345 83.227L117.459 83.4559L116.591 80.029ZM122.606 93.2319L124.769 92.8752L125.442 95.4852L123.264 95.7816L122.606 93.2319ZM121.77 89.9961L123.941 89.6683L124.609 92.2568L122.447 92.6116L121.77 89.9961ZM121.003 87.0214L123.174 86.6936L123.781 89.0479L121.614 89.3665L121.003 87.0214ZM120.165 83.7777L122.354 83.5221L123.013 86.0712L120.842 86.3991L120.165 83.7777ZM119.149 79.8474L121.363 79.6874L122.187 82.8971L119.997 83.1509L119.149 79.8474ZM126.25 96.0137L128.174 95.7596L128.135 95.4502L129.746 101.692C129.049 101.516 128.338 101.393 127.622 101.327L126.25 96.0137ZM125.41 92.7602L127.357 92.4405L128.051 95.1325L126.088 95.3918L125.41 92.7602ZM124.584 89.5612L126.54 89.2666L127.2 91.8197L125.252 92.1413L124.584 89.5612ZM123.816 86.5845L125.769 86.2904L125.97 87.0707L125.997 87.1845L126.373 88.6436L124.418 88.9402L123.816 86.5845ZM123.002 83.4345L124.974 83.2062L125.61 85.67L123.656 85.9641L123.002 83.4345ZM122.019 79.6289L124.014 79.4845L124.814 82.5819L122.843 82.8118L122.019 79.6289ZM129.964 101.65L129.976 101.703L130.24 101.824C130.087 101.781 129.937 101.737 129.783 101.698L129.964 101.65ZM104.13 78.0974L102.571 79.4909L102.254 78.26L103.813 76.8664L104.13 78.0974ZM104.793 80.6642L103.151 81.7422L102.834 80.5112L104.473 79.4318L104.793 80.6642ZM105.774 84.462L104.132 85.5419L103.814 84.311L105.374 82.9175L105.774 84.462ZM106.383 86.8223L104.741 87.9022L104.424 86.6713L106.067 85.587L106.383 86.8223ZM106.967 89.081L105.327 90.1623L105.009 88.9295L106.649 87.85L106.967 89.081ZM108.231 93.9747L106.51 94.7464L106.178 93.4629L107.9 92.6913L108.231 93.9747ZM89.7523 111.306L88.7773 111.737L88.1832 109.434L89.1563 109.002L89.7523 111.306ZM95.4493 106.153L94.509 106.718L93.9149 104.414L94.8556 103.852L95.4493 106.153ZM97.2443 105.164L96.3605 105.714L95.7664 103.41L96.6502 102.861L97.2443 105.164ZM146.331 114.05L141.759 96.3421L140.786 95.1966L140.614 94.5315L141.258 93.7401L140.152 92.7758L140.072 92.4285L140.785 91.8297L139.607 90.6551L139.466 90.1069L139.921 89.2514L139.09 86.0206L128.88 85.5452L126.578 86.7587L124.534 78.8021L122.853 78.8515L122.201 76.3274L119.261 76.3389L119.04 75.4825L118.087 75.5147L116.269 68.479C116.269 68.479 115.039 67.4281 115.465 69.0782C115.823 70.4671 116.684 73.9247 117.089 75.5529L116.13 75.5821L115.367 76.3577L114.299 76.3605L113.705 74.0587L111.878 73.4474L113.27 72.3694L112.65 69.9742L103.437 69.2789L103.418 69.1965L100.029 72.3788L98.6836 73.6134L98.6891 73.637L98.5987 73.7199L101.164 83.6561L97.5843 84.2639L94.419 86.8552L94.9447 88.8895L94.0249 88.7464L93.4393 89.2268C92.9457 87.3401 92.3007 84.8517 91.8765 83.1225C91.5612 81.8292 91.2424 83.2855 91.2424 83.2855L92.8919 89.6757L91.88 90.5026L92.2837 92.0629L90.2879 93.516L90.6111 95.2106L91.6693 95.8818L93.5166 103.039L92.9281 103.381L92.9507 103.479L92.5055 103.735L93.0872 105.914L89.6157 106.302L89.5953 106.214L89.2488 106.414L86.4977 107.998L91.2223 127.237C90.8128 130.704 91.0489 134.217 91.9187 137.599C95.0788 149.84 105.827 158.217 118.081 159.273L129.459 158.106C144.976 153.553 154.474 137.773 150.356 122.527C149.544 119.479 148.18 116.605 146.331 114.05Z" fill="white"/>
<path d="M134.11 128.987C132.354 129.44 130.345 128.203 129.081 126.685C130.193 127.848 131.781 128.667 133.408 128.248L133.62 128.199L133.651 127.985C133.948 126.145 133.266 124.215 132.159 122.698C132.34 122.901 132.505 123.118 132.652 123.346C133.364 124.199 135.207 128.707 134.108 128.989L134.11 128.987ZM133.437 131.182C133.363 131.325 133.3 131.474 133.25 131.627C132.027 131.861 131.171 131.718 130.639 131.196C130.569 131.036 130.531 130.863 130.529 130.688C130.527 130.514 130.559 130.34 130.626 130.179C130.661 130.094 130.727 130.026 130.811 129.989C132.072 129.809 133.042 129.802 133.61 130.359C133.655 130.644 133.594 130.936 133.438 131.18L133.437 131.182ZM129.792 132.402C129.179 132.075 129.423 130.806 129.899 130.311C129.829 130.719 129.883 131.139 130.054 131.515L130.075 131.564L130.111 131.603C130.782 132.306 131.802 132.532 133.217 132.288C132.575 132.541 131.092 133.094 129.799 132.399L129.792 132.402ZM131.016 137.876C130.013 138.964 128.604 139.861 127.428 140.164C127.259 140.208 127.088 140.241 126.915 140.264C126.743 139.653 126.693 139.014 126.77 138.383C126.847 137.753 127.049 137.144 127.363 136.593C127.693 136.01 128.137 135.5 128.667 135.091C129.197 134.681 129.804 134.383 130.451 134.212C131.186 134.021 131.956 134.012 132.694 134.187C132.996 135.073 132.09 136.714 131.022 137.873L131.016 137.876ZM126.143 139.874C126.126 139.799 126.129 139.722 126.121 139.645C126.169 140.006 126.251 140.36 126.366 140.705L126.442 140.933L126.689 140.922C126.994 140.914 127.296 140.868 127.589 140.784C129.16 140.38 130.642 139.236 131.505 138.3C131.737 138.047 131.955 137.783 132.159 137.507C129.805 141.492 125.284 143.446 126.148 139.869L126.143 139.874ZM124.897 143.187C124.296 143.564 122.362 143.841 122.257 142.493C122.233 142.038 122.239 141.581 122.274 141.127C122.355 141.597 122.498 142.055 122.7 142.488L122.767 142.634L122.929 142.666C123.446 142.795 123.985 142.799 124.504 142.681C124.771 142.61 125.028 142.503 125.267 142.362C125.355 142.326 125.429 142.263 125.48 142.183C125.374 142.602 125.147 143.031 124.902 143.182L124.897 143.187ZM120.37 141.895C120.371 142.061 120.358 142.226 120.333 142.389C116.964 142.442 114.464 141.416 112.709 139.258C113.207 138.779 113.823 138.439 114.494 138.273C115.327 138.075 116.194 138.08 117.023 138.291C117.852 138.5 118.619 138.908 119.256 139.478C119.652 139.839 119.961 140.285 120.161 140.782C120.278 141.141 120.35 141.513 120.375 141.89L120.37 141.895ZM124.934 141.815C124.748 141.925 124.549 142.009 124.341 142.065C123.976 142.15 123.598 142.152 123.233 142.073C122.849 141.166 122.758 140.197 123.019 139.673C123.049 139.599 123.095 139.533 123.154 139.479C123.214 139.424 123.284 139.385 123.361 139.361C123.608 139.304 123.974 139.412 124.403 139.688C124.676 139.866 125.047 141.402 124.939 141.81L124.934 141.815ZM110.105 136.001C110.516 135.619 111.208 135.062 111.881 134.888C112.034 134.838 112.195 134.821 112.355 134.839C112.514 134.858 112.668 134.911 112.805 134.995C112.91 135.137 112.978 135.302 113.003 135.476C113.029 135.651 113.011 135.829 112.951 135.995C112.666 136.693 111.572 137.181 110.896 137.387L110.859 137.35C110.52 136.984 110.216 136.67 110.109 135.993L110.105 136.001ZM120.267 143.178C119.933 143.582 115.974 143.016 114.31 142.987C112.969 142.405 111.747 141.579 110.707 140.551C110.275 140.119 109.869 139.661 109.493 139.179C109.671 138.588 109.84 137.999 110.025 137.402C110.141 137.547 110.262 137.676 110.379 137.798C110.436 137.855 110.493 137.914 110.544 137.967L110.678 138.109L110.875 138.064C111.096 138.013 113.062 137.468 113.565 136.227C113.779 135.702 113.701 135.162 113.328 134.593L113.297 134.546L113.252 134.513C113.034 134.357 112.782 134.254 112.517 134.211C112.252 134.169 111.98 134.189 111.724 134.269C111.734 134.249 111.742 134.227 111.748 134.205C111.723 134.235 111.696 134.263 111.666 134.288C111.302 134.4 110.957 134.564 110.64 134.776C110.137 134.914 109.585 134.996 109.155 135.094C107.88 135.389 107.706 132.768 107.813 130.776C107.885 131.927 108.184 133.052 108.693 134.086L108.797 134.294L109.032 134.258C109.19 134.236 109.347 134.205 109.501 134.165C111.317 133.698 112.519 132.02 112.656 129.802C112.666 129.616 112.665 129.424 112.658 129.231C113.152 127.754 113.657 126.281 114.172 124.812C114.384 124.588 114.534 124.312 114.607 124.013C114.621 123.966 114.632 123.924 114.637 123.909L114.704 123.798L114.675 123.672C114.664 123.623 114.652 123.572 114.64 123.519L115.151 122.083C116.322 122.569 117.776 122.51 118.965 122.2C120.526 121.798 121.823 120.972 122.469 119.975C122.292 120.934 121.752 121.881 120.547 122.302C120.233 123.16 120.224 122.821 119.942 123.583L119.433 124.066C123.467 123.027 126.573 125.625 127.322 128.529C127.613 129.645 127.629 130.816 127.368 131.939C125.509 137.449 119.138 136.356 117.501 135.208C115.57 133.854 114.963 131.727 114.895 131.087C114.457 127.032 116.266 125.012 119.008 124.174C119.008 124.174 113.482 125.306 114.021 131.177C114.095 131.969 114.781 134.359 116.973 135.903C117.646 136.376 118.374 136.762 119.143 137.055L118.815 138.319C117.47 137.521 115.867 137.278 114.346 137.64C113.46 137.861 112.658 138.34 112.043 139.015L111.867 139.211L112.024 139.416C113.888 141.849 116.673 143.053 120.309 143.009C120.29 143.069 120.285 143.12 120.274 143.17L120.267 143.178ZM109.811 125.35C111.442 126.079 112.09 128.13 111.992 129.782C111.901 131.341 111.11 133.187 109.176 133.592C107.817 130.614 108.525 127.309 109.817 125.342L109.811 125.35ZM110.597 122.035C110.518 122.166 110.455 122.306 110.41 122.452C110.296 122.713 110.255 123.001 110.294 123.284C110.332 123.567 110.448 123.834 110.628 124.055C111.156 124.733 112.241 125.159 113.271 125.117C112.632 125.573 111.609 125.708 110.022 124.476C108.973 123.654 109.916 122.591 110.604 122.027L110.597 122.035ZM111.027 122.669L111.04 122.635C111.143 122.355 111.312 122.104 111.532 121.902C111.619 121.807 111.71 121.708 111.791 121.602C111.797 121.593 111.806 121.586 111.816 121.584C111.989 121.585 112.157 121.642 112.296 121.746C112.998 122.154 113.792 123.097 113.997 123.742L113.962 123.852C113.878 124.131 113.785 124.391 113.568 124.445C113.536 124.455 113.503 124.463 113.47 124.468C112.6 124.569 111.583 124.219 111.157 123.671C111.041 123.533 110.967 123.364 110.945 123.185C110.923 123.005 110.954 122.824 111.033 122.662L111.027 122.669ZM118.028 118.287C119.665 117.865 121.24 117.82 122.195 118.151C122.299 118.624 122.217 119.119 121.966 119.533C121.446 120.424 120.232 121.205 118.792 121.577C117.185 121.991 115.036 121.925 114.144 120.424C114.73 119.569 116.195 118.754 118.033 118.282L118.028 118.287ZM117.12 116.68L117.393 116.604C119.11 116.168 120.89 116.034 122.653 116.206C122.49 116.629 122.329 117.053 122.169 117.477C121.079 117.179 119.519 117.242 117.873 117.667C117.443 117.778 117.02 117.911 116.605 118.066L117.12 116.68ZM126.302 119.137C126.412 119.642 126.321 120.17 126.049 120.609C125.858 120.96 125.541 121.226 125.162 121.354C124.704 121.472 124.352 121.183 124.13 120.902C124.02 120.396 124.112 119.868 124.385 119.429C124.576 119.079 124.892 118.814 125.27 118.687C125.735 118.561 126.086 118.848 126.308 119.13L126.302 119.137ZM125.456 118.018C125.34 118.021 125.225 118.038 125.112 118.066C124.562 118.234 124.099 118.608 123.82 119.111C123.635 119.41 123.513 119.743 123.46 120.09C123.408 120.437 123.426 120.791 123.513 121.131L123.526 121.188L123.56 121.234C124.203 122.104 124.939 122.067 125.319 121.969C125.876 121.803 126.345 121.425 126.626 120.916C126.745 120.717 126.839 120.503 126.905 120.279C126.966 120.427 127.003 120.585 127.012 120.744C127.052 121.355 126.544 122.299 125.902 122.561C125.328 122.74 124.721 122.784 124.128 122.69C124.07 122.923 124.011 123.151 123.961 123.384C123.931 123.513 123.919 123.577 123.908 123.63C123.322 123.428 122.713 123.3 122.095 123.251C122.152 122.987 122.207 122.724 122.266 122.461C122.728 120.397 123.393 118.393 124.041 116.383C124.641 116.486 125.246 116.622 125.855 116.791L125.456 118.018ZM128.705 120.719C131.013 121.557 133.354 124.792 133.03 127.684C131.309 127.991 129.629 126.651 128.765 125.22C127.982 123.904 127.57 122.06 128.71 120.712L128.705 120.719ZM135.11 123.963C133.426 120.065 129.186 117.045 126.052 116.184C122.976 115.34 120.009 115.273 117.233 115.988C112.145 117.3 108.042 121.306 106.523 126.446C105.755 128.979 105.695 131.675 106.349 134.24C107.002 136.806 108.345 139.143 110.232 141C113.635 144.414 119.355 145.714 124.799 144.31C127.71 143.582 130.363 142.065 132.468 139.926C132.869 139.515 134.422 136.935 134.667 136.336C135.442 134.421 136.479 130.544 136.237 128.308C136.042 126.817 135.665 125.355 135.116 123.955L135.11 123.963Z" fill="white"/>
</svg>
