<svg width="255" height="255" viewBox="0 0 255 255" fill="none" xmlns="http://www.w3.org/2000/svg">
<path d="M129.374 62.0436C143.944 49.9747 166.115 58.2041 169.282 76.8565L183.714 161.855C186.881 180.507 168.668 195.594 150.931 189.01L70.1045 159.009C52.3676 152.426 48.4088 129.11 62.9788 117.041L129.374 62.0436Z" fill="#E3B8F4"/>
<path fill-rule="evenodd" clip-rule="evenodd" d="M131.494 142.696C131.437 142.765 131.374 142.829 131.307 142.888C131.405 142.886 131.504 142.892 131.601 142.905C131.739 142.925 131.88 142.919 132.016 142.888C132.04 142.565 132.026 142.241 131.973 141.922C131.846 142.199 131.685 142.459 131.494 142.696Z" fill="white"/>
<path opacity="0.18" fill-rule="evenodd" clip-rule="evenodd" d="M134.797 112.028C131.634 114.488 128.273 116.71 124.99 119.027C119.881 122.632 114.998 126.57 109.992 130.317C105.015 134.042 100.215 137.957 95.5213 142.015L95.2522 142.248C95.5794 144.283 96.1264 146.277 96.884 148.194C101.389 144.268 105.724 140.154 110.161 136.151C108.808 135.508 109.155 133.654 110.31 133.221C110.375 133.017 110.482 132.828 110.623 132.667C110.764 132.506 110.937 132.376 111.131 132.284C111.143 132.278 111.156 132.273 111.169 132.268C111.811 131.065 113.027 128.997 114.51 128.381C114.729 128.161 114.953 127.946 115.179 127.737C115.82 127.168 116.807 127.315 117.4 127.848C117.229 127.696 117.087 127.513 116.981 127.309C116.887 127.122 116.83 126.918 116.816 126.709C116.801 126.5 116.828 126.29 116.896 126.092C116.964 125.893 117.071 125.711 117.21 125.554C117.35 125.398 117.519 125.271 117.709 125.181C118.019 125.042 118.364 124.999 118.698 125.059C119.033 125.118 119.342 125.278 119.584 125.517C119.631 125.534 119.683 125.534 119.732 125.552C119.86 125.597 119.982 125.658 120.094 125.734C120.41 125.652 120.744 125.668 121.05 125.779C121.399 125.888 121.699 126.114 121.9 126.419C127.562 122.162 133.465 118.209 139.325 114.198C137.876 113.355 136.363 112.63 134.798 112.03" fill="white"/>
<path opacity="0.18" fill-rule="evenodd" clip-rule="evenodd" d="M131.335 128.333C136.015 125.037 140.158 121.726 144.509 118.009C144.281 117.802 144.051 117.594 143.814 117.393C143.741 117.451 143.663 117.504 143.582 117.549C138.838 120.214 134.375 123.429 130.11 126.886C130.893 127.232 131.487 127.68 131.333 128.332" fill="white"/>
<path opacity="0.18" fill-rule="evenodd" clip-rule="evenodd" d="M146.797 120.335C142.684 123.848 138.439 127.228 134.045 130.385C134.272 130.592 134.435 130.859 134.515 131.155C134.596 131.451 134.59 131.764 134.498 132.057C134.587 132.254 134.633 132.467 134.633 132.683L135.603 132.165C140.358 129.61 145.117 127.056 149.911 124.569C148.997 123.067 147.953 121.649 146.79 120.331" fill="white"/>
<path fill-rule="evenodd" clip-rule="evenodd" d="M132.239 140.35C132.421 140.161 132.641 140.012 132.884 139.915C132.727 139.071 132.685 138.21 132.76 137.356L131.315 138.127C131.813 138.775 132.132 139.541 132.241 140.351" fill="white"/>
<path fill-rule="evenodd" clip-rule="evenodd" d="M132.016 142.887C132.041 142.566 132.027 142.242 131.974 141.924C131.846 142.199 131.685 142.457 131.495 142.693C131.438 142.763 131.376 142.827 131.308 142.886C131.406 142.883 131.503 142.889 131.6 142.902C131.739 142.922 131.879 142.916 132.015 142.884" fill="white"/>
<path fill-rule="evenodd" clip-rule="evenodd" d="M129.308 143.964C129.409 143.685 129.589 143.442 129.826 143.264C129.407 143.168 129.032 142.934 128.76 142.6C126.808 145.313 122.412 147.166 120.452 144.346C119.792 144.763 119.138 145.188 118.478 145.613C118.788 145.857 119.113 146.082 119.45 146.287C119.573 146.265 119.7 146.257 119.825 146.265C120.094 146.282 120.355 146.365 120.583 146.508C120.91 146.425 121.254 146.449 121.566 146.576C122.899 147.071 124.236 147.039 125.533 146.732C125.973 146.246 126.573 145.935 127.223 145.856C127.491 145.829 127.762 145.828 128.031 145.855C128.197 145.784 128.357 145.712 128.52 145.637C128.887 145.473 129.301 145.446 129.687 145.561C129.485 145.354 129.343 145.095 129.277 144.813C129.211 144.531 129.223 144.236 129.312 143.961" fill="white"/>
<path opacity="0.17" d="M151.792 105.13L154.447 97.3982L146.302 92.8412L145.911 93.9852C147.762 97.7568 149.749 101.459 151.803 105.128" fill="white"/>
<path opacity="0.17" d="M145.169 96.1356L144.619 97.7445C145.333 99.7433 146.246 101.667 147.155 103.592C148.176 105.75 149.095 107.945 150.092 110.106L151.094 107.177C149.037 103.539 147.039 99.8715 145.166 96.1368" fill="white"/>
<path opacity="0.17" d="M146.856 110.806C145.603 108.027 144.218 105.26 143.004 102.442L141.348 107.281L146.92 119.36L148.587 114.486C147.994 113.263 147.417 112.037 146.855 110.808" fill="white"/>
<path d="M134.308 125.228L134.302 125.243C138.411 128.426 140.526 133.707 140.806 139.914C141.629 133.397 138.709 128.302 134.311 125.229" fill="white"/>
<path d="M149.166 140.348C148.89 140.953 148.332 142.294 147.994 142.807C146.636 144.849 146.244 146.061 143.736 145.14C141.44 144.303 141.197 143.189 140.269 141.216C140.14 141.928 138.968 147.718 134.043 150.29C137.872 149.402 141.241 149.609 141.003 154.297C140.887 156.577 140.068 157.858 138.157 158.774C136.743 159.453 136.704 161.341 138.348 160.338C144.698 156.466 149.95 148.179 150.413 140.27C150.494 138.859 149.742 139.069 149.159 140.344" fill="white"/>
<path d="M96.3762 140.201C96.3821 139.967 96.4785 139.745 96.6452 139.581C96.812 139.416 97.036 139.323 97.27 139.321C97.5079 139.323 97.7363 139.416 97.9073 139.581C98.0783 139.747 98.179 139.972 98.1882 140.21C98.482 146.676 102.833 154.219 109.351 159.479C109.848 159.877 95.9259 151.34 96.3762 140.201Z" fill="white"/>
<path d="M136.072 161.916C136.509 161.672 136.6 161.113 136.356 160.821C136.113 160.528 135.6 160.508 135.169 160.756C130.75 163.285 122.736 164.615 115.657 162.321C115.116 162.146 126 167.545 136.07 161.923" fill="white"/>
<path d="M142.29 84.2673L140.221 82.885L140.633 81.6805L142.7 83.064L142.29 84.2673Z" fill="white"/>
<path d="M141.605 86.2731L139.535 84.8927L139.948 83.6882L142.015 85.0698L141.605 86.2731Z" fill="white"/>
<path d="M140.917 88.2807L138.848 86.8983L139.261 85.6939L141.328 87.0755L140.917 88.2807Z" fill="white"/>
<path d="M143.684 95.0535L140.62 92.9947L141.032 91.7921L144.096 93.8509L143.684 95.0535Z" fill="white"/>
<path d="M142.86 97.2376L139.796 95.1788L140.206 93.9755L143.272 96.0332L142.86 97.2376Z" fill="white"/>
<path d="M142.173 99.4681L139.109 97.4075L139.521 96.2049L142.585 98.2637L142.173 99.4681Z" fill="white"/>
<path d="M139.81 106.21L136.927 104.96L137.45 103.801L140.02 104.944L139.81 106.21Z" fill="white"/>
<path d="M121.928 93.6482L121.307 93.4353L117.388 104.866L118.009 105.078L121.928 93.6482Z" fill="white"/>
<path d="M117.744 100.791L117.123 100.578L115.73 104.639L116.351 104.852L117.744 100.791Z" fill="white"/>
<path d="M121.926 98.6917L117.949 98.6718L118.155 98.0696L122.133 98.0876L121.926 98.6917Z" fill="white"/>
<path d="M129.886 91.8124L129.059 91.5289L128.2 94.036L129.027 94.3194L129.886 91.8124Z" fill="white"/>
<path d="M128.685 95.1528L127.961 94.9046L127.102 97.4116L127.826 97.6598L128.685 95.1528Z" fill="white"/>
<path d="M120.36 103.111L117.369 108.473C117.369 108.473 110.105 112.146 110.138 111.71C110.171 111.273 111.304 108.302 111.304 108.302L113.398 108.233L115.139 102.247L115.354 101.505L117.322 100.834L116.74 102.708L120.36 103.111Z" fill="white"/>
<path d="M114.722 164.765C99.4989 159.544 91.2224 143.286 96.2756 128.52C97.135 126.008 98.8546 123.708 101.078 121.659C98.1731 125.73 96.4357 130.517 96.0532 135.503C95.8679 137.941 97.0094 136.834 97.4462 135.749C97.9726 134.441 99.4408 132.037 100.734 131.48C103.148 130.442 104.319 131.476 104.355 133.057C104.552 133.169 104.394 137.407 107.502 141.42C105.725 131.738 110.859 125.871 116.298 123.815C115.344 123.794 110.746 125.37 109.932 124.821C106.699 122.65 110.571 118.371 112.699 116.456C114.806 114.575 117.218 113.067 119.831 111.995L119.897 111.966C121.838 111.416 123.822 111.035 125.828 110.827L120.704 108.972L121.785 108.749L129.245 87.4476L129.314 87.441L132.421 88.8093L126.835 105.18L126.924 105.213L126.913 105.243L127.357 105.36L127.457 105.397L129.769 106.009L124.806 105.316L123.785 108.299L131.334 110.213L142.304 78.1579L142.337 78.1507L149.072 83.3573L148.549 84.8817L146.032 85.0754L147.74 87.2452L138.777 113.438L138.892 113.481L134.244 112.05L140.181 115.072L144.095 103.797L145.843 104.603L144.967 107.167L143.794 106.641L143.528 107.223L144.759 107.773L142.808 113.475L143.429 113.689L144.304 111.133L146.286 112.084L144.16 118.299L144.634 118.463C147.075 120.927 149.055 123.808 150.481 126.97C150.231 125.383 149.73 123.846 148.996 122.417L149.684 121.428L154.874 106.286L161.952 111.437L161.224 113.568L160.461 113.972L155.983 110.806L155.57 112.011L159.986 115.113L159.976 115.141L160.158 116.034L159.649 116.096L159.631 116.145L155.126 112.969L154.713 114.174L159.285 117.402L159.475 118.087L158.908 118.261L158.883 118.327L154.467 115.225L154.055 116.428L158.471 119.53L158.459 119.564L158.613 120.805L153.777 117.547L153.366 118.748L158.296 122.081L157.911 123.206L153.053 119.996L152.641 121.198L157.499 124.406L153.53 136.004C153.388 134.736 153.191 133.49 152.985 132.262C152.985 132.262 153.727 141.259 151.496 147.466C146.234 162.158 129.946 169.998 114.721 164.781L114.722 164.765ZM110.426 101.416L113.545 103.003L112.228 106.95L110.164 106.914L109.472 108.883L108.039 108.392L110.426 101.416ZM145.109 100.893L146.844 101.692L146.056 103.994L144.31 103.189L145.109 100.893ZM146.236 97.6467L147.939 98.4935L147.055 101.078L145.322 100.278L146.236 97.6467ZM147.604 93.7058L149.26 94.6338L148.145 97.8913L146.444 97.0452L147.604 93.7058ZM145.366 108.041L147.368 108.932L146.495 111.482L144.513 110.532L145.366 108.041ZM146.448 104.878L148.441 105.799L147.575 108.328L145.574 107.435L146.448 104.878ZM147.443 101.972L149.436 102.892L148.649 105.193L146.664 104.267L147.443 101.972ZM148.527 98.802L150.496 99.7929L149.644 102.284L147.651 101.364L148.527 98.802ZM149.841 94.9612L151.778 96.0453L150.7 99.1791L148.732 98.1864L149.841 94.9612ZM146.879 112.368L148.625 113.214L148.763 112.934L146.676 119.033C146.19 118.502 145.664 118.01 145.102 117.56L146.879 112.368ZM147.967 109.189L149.769 109.993L148.868 112.623L147.086 111.759L147.967 109.189ZM149.037 106.063L150.832 106.893L149.979 109.388L148.176 108.585L149.037 106.063ZM150.033 103.154L151.826 103.983L151.564 104.746L151.524 104.855L151.035 106.281L149.24 105.453L150.033 103.154ZM151.085 100.076L152.858 100.97L152.034 103.377L150.24 102.548L151.085 100.076ZM152.358 96.3573L154.103 97.3336L153.067 100.361L151.295 99.4687L152.358 96.3573ZM146.881 119.118L146.862 119.169L147.015 119.415C146.912 119.295 146.81 119.176 146.703 119.059L146.881 119.118ZM138.26 85.2387L136.192 85.545L136.604 84.3424L138.672 84.0361L138.26 85.2387ZM137.402 87.7471L135.438 87.7441L135.85 86.5415L137.813 86.542L137.402 87.7471ZM136.132 91.4581L134.167 91.457L134.579 90.2544L136.647 89.9482L136.132 91.4581ZM135.343 93.7644L133.377 93.7632L133.789 92.5607L135.758 92.5587L135.343 93.7644ZM134.588 95.9718L132.624 95.9732L133.036 94.7687L135 94.7692L134.588 95.9718ZM132.952 100.754L131.09 100.452L131.519 99.1978L133.381 99.5001L132.952 100.754ZM107.987 105.064L106.935 104.889L107.706 102.638L108.756 102.813L107.987 105.064ZM115.579 103.895L114.483 103.849L115.254 101.598L116.349 101.646L115.579 103.895ZM117.622 104.056L116.582 104.029L117.353 101.778L118.393 101.805L117.622 104.056ZM153.729 138.476L159.651 121.173L159.468 119.681L159.69 119.031L160.663 118.724L160.27 117.311L160.395 116.976L161.32 116.869L160.981 115.239L161.165 114.704L162.016 114.24L163.099 111.085L154.833 105.072L152.244 104.819L154.913 97.05L153.481 96.1664L154.326 93.7002L151.864 92.0924L152.15 91.2559L151.336 90.7582L153.688 83.8829C153.688 83.8829 153.239 82.3283 152.687 83.941C152.222 85.2979 151.039 88.6588 150.482 90.2414L149.665 89.7385L148.601 89.9665L147.708 89.3814L148.478 87.1325L147.288 85.6166L149.044 85.482L149.844 83.1411L142.531 77.4926L142.561 77.4133L137.981 78.2073L136.178 78.4983L136.169 78.521L136.048 78.5405L132.726 88.2498L129.402 86.7883L125.333 87.2114L124.653 89.1995L123.963 88.5741L123.21 88.6532C123.836 86.8061 124.666 84.3731 125.263 82.6957C125.711 81.4421 124.643 82.483 124.643 82.483L122.506 88.7271L121.206 88.861L120.685 90.3862L118.219 90.5019L117.557 92.095L118.072 93.2376L115.678 100.231L114.998 100.193L114.963 100.287L114.45 100.256L113.738 102.396L110.625 100.81L110.657 100.726L110.257 100.702L107.088 100.512L100.452 119.178C98.2032 121.848 96.468 124.912 95.3345 128.214C91.2404 140.176 95.6091 153.084 105.263 160.706L115.406 165.989C130.869 170.721 147.482 162.767 152.428 147.769C153.426 144.777 153.867 141.627 153.729 138.476Z" fill="white"/>
<path d="M135.307 144.229C133.591 143.641 132.594 141.503 132.373 139.539C132.662 141.122 133.538 142.68 135.127 143.225L135.331 143.301L135.475 143.14C136.734 141.766 137.227 139.779 137.137 137.903C137.176 138.172 137.194 138.444 137.192 138.716C137.317 139.819 136.377 144.598 135.304 144.23L135.307 144.229ZM133.537 145.692C133.397 145.771 133.263 145.86 133.137 145.96C131.986 145.483 131.35 144.893 131.193 144.165C131.222 143.992 131.286 143.827 131.38 143.68C131.474 143.533 131.597 143.406 131.741 143.307C131.818 143.256 131.91 143.236 132.001 143.25C133.152 143.794 133.966 144.322 134.135 145.1C134.015 145.362 133.803 145.572 133.54 145.691L133.537 145.692ZM129.822 144.706C129.49 144.095 130.392 143.169 131.062 143.018C130.779 143.321 130.593 143.7 130.529 144.109L130.52 144.162L130.528 144.214C130.702 145.17 131.429 145.919 132.745 146.494C132.07 146.352 130.527 145.999 129.83 144.707L129.822 144.706ZM127.834 149.951C126.398 150.307 124.727 150.282 123.578 149.887C123.414 149.831 123.252 149.765 123.096 149.689C123.287 149.084 123.598 148.523 124.008 148.039C124.42 147.554 124.923 147.157 125.489 146.87C126.085 146.565 126.736 146.382 127.404 146.332C128.072 146.282 128.743 146.366 129.377 146.58C130.096 146.824 130.744 147.241 131.264 147.793C131.029 148.698 129.369 149.571 127.84 149.951L127.834 149.951ZM122.665 148.938C122.692 148.867 122.737 148.804 122.773 148.736C122.614 149.063 122.488 149.404 122.394 149.755L122.332 149.988L122.545 150.114C122.803 150.276 123.082 150.403 123.372 150.494C124.906 151.021 126.774 150.88 128.009 150.574C128.341 150.49 128.669 150.389 128.991 150.271C124.834 152.304 119.983 151.449 122.672 148.937L122.665 148.938ZM119.802 151.021C119.093 151.005 117.325 150.172 117.979 148.988C118.209 148.596 118.465 148.217 118.745 147.857C118.554 148.294 118.421 148.756 118.352 149.228L118.327 149.387L118.445 149.503C118.806 149.894 119.254 150.195 119.752 150.381C120.015 150.469 120.288 150.521 120.565 150.535C120.658 150.553 120.755 150.542 120.841 150.502C120.522 150.794 120.096 151.027 119.809 151.019L119.802 151.021ZM116.732 147.452C116.641 147.59 116.54 147.721 116.43 147.844C113.587 146.035 112.063 143.802 111.784 141.035C112.464 140.909 113.165 140.964 113.817 141.195C114.621 141.487 115.343 141.969 115.92 142.6C116.497 143.232 116.912 143.993 117.131 144.82C117.263 145.339 117.276 145.882 117.169 146.407C117.07 146.771 116.925 147.121 116.739 147.45L116.732 147.452ZM120.588 149.895C120.372 149.884 120.159 149.845 119.954 149.778C119.604 149.647 119.287 149.441 119.025 149.175C119.204 148.206 119.66 147.346 120.167 147.053C120.232 147.008 120.308 146.977 120.387 146.965C120.466 146.952 120.547 146.958 120.623 146.98C120.861 147.068 121.108 147.36 121.314 147.827C121.444 148.125 120.909 149.612 120.595 149.893L120.588 149.895ZM111.401 136.883C111.955 136.79 112.839 136.706 113.497 136.93C113.652 136.972 113.796 137.047 113.919 137.15C114.042 137.254 114.141 137.383 114.21 137.528C114.219 137.704 114.185 137.879 114.11 138.039C114.035 138.199 113.923 138.337 113.782 138.443C113.16 138.869 111.977 138.675 111.299 138.475L111.288 138.424C111.207 137.932 111.126 137.502 111.409 136.879L111.401 136.883ZM115.941 148.466C115.439 148.62 112.444 145.97 111.07 145.03C110.271 143.806 109.705 142.445 109.401 141.014C109.278 140.415 109.191 139.81 109.142 139.2C109.616 138.804 110.082 138.406 110.564 138.009C110.581 138.194 110.611 138.368 110.642 138.534C110.658 138.613 110.673 138.694 110.687 138.766L110.72 138.959L110.909 139.029C111.123 139.108 113.064 139.734 114.167 138.975C114.634 138.654 114.866 138.16 114.868 137.48L114.867 137.424L114.848 137.371C114.751 137.121 114.598 136.896 114.4 136.715C114.202 136.533 113.964 136.401 113.706 136.327C113.725 136.315 113.744 136.302 113.761 136.287C113.724 136.298 113.686 136.306 113.647 136.311C113.282 136.204 112.903 136.151 112.522 136.154C112.025 135.993 111.52 135.758 111.107 135.603C109.88 135.147 111.176 132.864 112.361 131.259C111.788 132.259 111.419 133.363 111.275 134.507L111.247 134.738L111.464 134.838C111.608 134.906 111.755 134.966 111.906 135.017C113.68 135.626 115.607 134.886 116.941 133.109C117.052 132.959 117.157 132.798 117.257 132.633C118.482 131.672 119.713 130.719 120.952 129.775C121.252 129.705 121.529 129.557 121.755 129.347C121.792 129.316 121.825 129.287 121.837 129.277L121.954 129.221L121.999 129.1C122.017 129.053 122.035 129.004 122.054 128.953L123.271 128.035C123.981 129.084 125.228 129.835 126.391 130.23C127.916 130.753 129.454 130.776 130.542 130.299C129.866 131.002 128.894 131.497 127.657 131.185C126.922 131.729 127.102 131.441 126.447 131.922L125.756 132.046C129.697 133.397 130.861 137.275 129.89 140.112C129.519 141.205 128.888 142.191 128.052 142.985C123.469 146.565 118.75 142.147 118.014 140.288C117.146 138.095 117.809 135.985 118.105 135.414C119.969 131.786 122.591 131.094 125.341 131.903C125.341 131.903 120.104 129.808 117.325 135.009C116.951 135.71 116.21 138.083 117.191 140.578C117.493 141.343 117.888 142.067 118.369 142.734L117.4 143.609C116.716 142.203 115.511 141.118 114.042 140.584C113.179 140.282 112.247 140.24 111.362 140.466L111.107 140.533L111.125 140.791C111.344 143.847 113.008 146.385 116.068 148.348C116.019 148.388 115.987 148.428 115.951 148.463L115.941 148.466ZM117.014 127.826C117.976 129.332 117.388 131.401 116.398 132.727C115.465 133.979 113.788 135.086 111.95 134.36C112.453 131.125 114.863 128.754 117.023 127.823L117.014 127.826ZM119.494 125.49C119.356 125.555 119.226 125.638 119.109 125.735C118.869 125.891 118.677 126.109 118.553 126.366C118.43 126.624 118.38 126.91 118.408 127.194C118.477 128.051 119.148 129.002 120.031 129.534C119.247 129.563 118.319 129.113 117.671 127.213C117.246 125.949 118.619 125.579 119.504 125.487L119.494 125.49ZM119.504 126.256L119.533 126.235C119.774 126.058 120.053 125.94 120.348 125.893C120.473 125.862 120.603 125.829 120.729 125.785C120.739 125.78 120.75 125.78 120.76 125.783C120.904 125.88 121.013 126.02 121.071 126.183C121.433 126.91 121.578 128.134 121.394 128.786L121.305 128.858C121.081 129.045 120.86 129.211 120.649 129.137C120.617 129.127 120.586 129.116 120.555 129.101C119.773 128.708 119.116 127.856 119.062 127.164C119.041 126.985 119.072 126.803 119.152 126.641C119.232 126.48 119.358 126.345 119.514 126.253L119.504 126.256ZM127.761 126.447C129.36 126.995 130.7 127.823 131.316 128.625C131.143 129.078 130.802 129.446 130.365 129.654C129.441 130.112 127.997 130.096 126.59 129.614C125.02 129.077 123.262 127.84 123.342 126.095C124.302 125.704 125.974 125.828 127.769 126.445L127.761 126.447ZM127.887 124.605L128.157 124.692C129.83 125.273 131.391 126.139 132.768 127.253C132.4 127.517 132.032 127.782 131.665 128.048C130.919 127.2 129.581 126.394 127.972 125.844C127.553 125.7 127.126 125.579 126.694 125.479L127.887 124.605ZM134.204 131.708C134.017 132.19 133.651 132.581 133.182 132.798C132.83 132.986 132.419 133.034 132.033 132.932C131.585 132.779 131.45 132.344 131.419 131.987C131.605 131.504 131.972 131.114 132.442 130.897C132.794 130.71 133.204 130.662 133.589 130.764C134.047 130.915 134.183 131.348 134.213 131.705L134.204 131.708ZM134.113 130.308C134.014 130.247 133.909 130.197 133.799 130.159C133.247 129.996 132.654 130.054 132.145 130.321C131.827 130.469 131.541 130.679 131.306 130.94C131.072 131.201 130.892 131.507 130.778 131.839L130.758 131.894L130.76 131.951C130.819 133.031 131.454 133.404 131.825 133.532C132.381 133.7 132.981 133.642 133.496 133.372C133.705 133.271 133.901 133.143 134.079 132.993C134.049 133.151 133.993 133.302 133.913 133.441C133.61 133.973 132.667 134.482 131.986 134.348C131.409 134.181 130.877 133.884 130.433 133.479C130.257 133.641 130.082 133.8 129.913 133.967C129.817 134.058 129.771 134.106 129.734 134.143C129.355 133.652 128.917 133.211 128.428 132.829C128.62 132.641 128.811 132.451 129.005 132.264C130.526 130.794 132.184 129.487 133.83 128.164C134.275 128.58 134.705 129.026 135.121 129.503L134.113 130.308ZM135.341 134.351C136.807 136.32 136.983 140.309 135.121 142.546C133.515 141.856 132.849 139.813 132.915 138.142C132.984 136.613 133.655 134.847 135.348 134.347L135.341 134.351ZM138.905 140.582C139.643 136.401 137.763 131.547 135.619 129.103C133.514 126.707 131.073 125.019 128.361 124.09C123.391 122.387 117.76 123.476 113.665 126.933C111.631 128.626 110.098 130.844 109.233 133.346C108.367 135.848 108.203 138.539 108.758 141.128C109.722 145.851 113.784 150.082 119.103 151.904C121.934 152.897 124.984 153.09 127.918 152.461C128.479 152.339 131.196 151.038 131.729 150.672C133.43 149.499 136.428 146.832 137.457 144.831C138.114 143.478 138.603 142.051 138.914 140.58L138.905 140.582Z" fill="white"/>
</svg>
