<svg width="125" height="34" viewBox="0 0 125 34" fill="none" xmlns="http://www.w3.org/2000/svg">
<path d="M37.2928 14.9214C37.3558 14.3606 37.3871 13.831 37.3871 13.3326C37.3871 10.9648 36.7047 9.78094 35.3404 9.78094C34.7106 9.78094 34.2068 10.051 33.8289 10.591C33.4302 11.1517 33.2308 11.8579 33.2308 12.7095C33.2308 14.1426 33.934 15.8976 35.3404 17.9746L36.0015 18.9092L36.6943 19.9061C37.1981 20.6746 37.6181 21.3809 37.9539 22.0247C38.8144 23.6862 39.2448 25.2543 39.2448 26.7289C39.2448 28.1827 38.8773 29.325 38.1428 30.1558C37.4292 30.9452 36.4741 31.3397 35.2775 31.3397C34.0179 31.3397 33.0523 30.8622 32.3808 29.9065C31.7719 29.0135 31.4678 27.7985 31.4678 26.2617C31.4678 25.3686 31.5829 24.4133 31.814 23.3956L33.3255 23.6135C33.1783 24.3403 33.1049 25.1091 33.1049 25.9188C33.1049 28.4113 33.8397 29.6576 35.3091 29.6576C35.9807 29.6576 36.5054 29.377 36.8832 28.8162C37.2402 28.3177 37.4187 27.6429 37.4187 26.7912C37.4187 25.7735 37.1038 24.6415 36.4741 23.3956C35.8651 22.1493 35.1727 21.0173 34.3957 19.9996C33.6191 18.878 32.9372 17.7045 32.3491 16.4791C31.7193 15.1291 31.4048 13.9037 31.4048 12.8029C31.4048 11.4944 31.7719 10.3936 32.5067 9.50056C33.2625 8.60748 34.1964 8.16092 35.3091 8.16092C36.2535 8.16092 37.0934 8.52437 37.8279 9.25131C38.5837 9.95749 38.9616 11.2244 38.9616 13.0521C38.9616 13.4468 38.909 14.1114 38.8039 15.046L37.2928 14.9214Z" fill="#763287"/>
<path d="M45.4786 21.0576C46.3394 21.0576 47.0005 21.525 47.4623 22.4597C47.9452 23.3944 48.1972 24.4327 48.218 25.575C48.281 26.6967 48.3753 27.7247 48.5013 28.6594C48.6272 29.5941 48.8374 30.0613 49.131 30.0613C49.6558 30.0613 49.9185 29.3552 49.9185 27.9426H51.1147C51.1147 29.0642 50.9258 29.9676 50.5479 30.6531C50.1913 31.3385 49.7187 31.6814 49.131 31.6814C48.1867 31.6814 47.5044 31.2036 47.0844 30.2482C46.7907 29.5834 46.5914 28.5137 46.4863 27.0392L46.4233 26.1982L46.3603 25.3571C46.2973 24.7339 46.2239 24.2354 46.1397 23.8616C45.909 22.9062 45.4786 22.4283 44.8488 22.4283C43.7573 22.4283 43.2117 23.5293 43.2117 25.7306V30.9337H41.48V7.10043H43.2117V20.8084L46.5493 14.889H48.9108L44.3137 21.4003C44.7333 21.1719 45.122 21.0576 45.4786 21.0576Z" fill="#763287"/>
<path d="M60.8997 27.4438C60.8997 29.8113 60.2069 30.9953 58.8214 30.9953C58.3596 30.9953 57.9501 30.8394 57.5934 30.5278C57.2156 30.1956 56.9637 29.7907 56.8377 29.3128C56.3547 30.04 55.5886 30.4032 54.5391 30.4032C53.6157 30.4032 52.8599 30.0606 52.2723 29.3752C51.6212 28.6274 51.2959 27.6307 51.2959 26.3844C51.2959 24.9512 51.6212 23.8192 52.2723 22.9885C52.9017 22.1578 53.7204 21.7422 54.7281 21.7422C55.5256 21.7422 56.1975 22.0435 56.7434 22.6459V18.4088C56.7434 16.3527 56.2396 15.3245 55.2319 15.3245C54.1613 15.3245 53.6261 16.2903 53.6261 18.2219C53.6261 18.8242 53.6679 19.3019 53.7521 19.655L52.2723 19.8419C52.1463 19.0942 52.0833 18.4088 52.0833 17.7857C52.0833 16.5188 52.377 15.5219 52.9647 14.7949C53.5527 14.0472 54.3711 13.6734 55.4208 13.6734C57.4571 13.6734 58.4752 15.1584 58.4752 18.1284V28.0042C58.4752 28.96 58.6641 29.4375 59.0416 29.4375C59.4825 29.4375 59.7031 28.773 59.7031 27.4438H60.8997ZM54.8224 28.8457C56.1241 28.8457 56.7747 27.859 56.7747 25.8859C56.7747 25.0965 56.6067 24.4527 56.2709 23.9542C55.9142 23.4767 55.4626 23.2378 54.917 23.2378C54.3711 23.2378 53.9198 23.518 53.5631 24.0788C53.2274 24.619 53.0593 25.2941 53.0593 26.1038C53.0593 27.9316 53.647 28.8457 54.8224 28.8457Z" fill="#763287"/>
<path d="M64.1036 8.34601V13.985H67.4724V15.5427H64.1036V25.6367C64.1036 27.963 64.5757 29.126 65.5204 29.126C66.5698 29.126 67.0945 27.8174 67.0945 25.2005C67.0945 24.5984 67.0528 23.7986 66.9686 22.8016L68.3228 22.646C68.4275 23.7467 68.4801 24.5877 68.4801 25.1695C68.4801 28.8457 67.4094 30.6838 65.2685 30.6838C63.3374 30.6838 62.3718 29.1573 62.3718 26.1039V15.5427H60.2622V14.5769L60.4195 14.5458C60.5033 14.525 60.5875 14.5042 60.6714 14.4834C60.7765 14.4211 60.8812 14.3588 60.9863 14.2965C61.2799 14.0888 61.5427 13.7877 61.7733 13.3931C62.4661 12.2923 62.8861 10.6099 63.0329 8.34601H64.1036Z" fill="#763287"/>
<path d="M71.055 19.7496C70.9499 20.7257 70.8978 21.567 70.8978 22.2731C70.8978 24.2462 71.1284 25.804 71.5902 26.9463C72.0101 28.0053 72.5348 28.5352 73.1646 28.5352C73.7523 28.5352 74.2878 27.9847 74.7704 26.884C75.2743 25.7 75.5366 24.3291 75.5578 22.7716H76.7541C76.7541 24.89 76.4079 26.6554 75.7151 28.0676C75.0223 29.4802 74.0777 30.1863 72.8814 30.1863C71.7269 30.1863 70.8135 29.4905 70.142 28.099C69.4492 26.7074 69.103 24.807 69.103 22.3978C69.103 19.7184 69.5122 17.5687 70.3309 15.9487C71.1497 14.3287 72.1991 13.5186 73.4795 13.5186C74.5502 13.5186 75.3898 14.1002 75.9983 15.2633C76.5864 16.4056 76.88 17.901 76.88 19.7496H71.055ZM73.4482 15.0764C72.4614 15.0764 71.7374 16.146 71.2756 18.2853H75.117C74.9698 16.146 74.4138 15.0764 73.4482 15.0764Z" fill="#763287"/>
<path d="M92.9062 9.686H89.5687V29.7808H87.8369V9.686H84.499V8.1283H92.9062V9.686Z" fill="#763287"/>
<path d="M92.3491 22.5229C92.3491 19.802 92.7583 17.6938 93.577 16.1984C94.3537 14.8069 95.4034 14.1111 96.7256 14.1111C99.5806 14.1111 101.008 16.8423 101.008 22.3046C101.008 25.0464 100.599 27.1441 99.7799 28.5979C99.0242 29.9895 97.9852 30.6853 96.6626 30.6853C93.7868 30.6853 92.3491 27.9645 92.3491 22.5229ZM94.1438 22.0244C94.1438 24.0597 94.3537 25.7628 94.7736 27.1337C95.2145 28.463 95.8756 29.1274 96.7573 29.1274C97.4709 29.1274 98.0586 28.6083 98.5204 27.5699C99.0033 26.4483 99.2448 24.8698 99.2448 22.8344C99.2236 20.3212 98.9612 18.4416 98.4574 17.1954C98.0378 16.1154 97.4814 15.6065 96.7886 15.6688C96.0329 15.6688 95.4139 16.1777 94.9309 17.1954C94.4062 18.3377 94.1438 19.9473 94.1438 22.0244Z" fill="#763287"/>
<path d="M113.241 13.4248H115.194L112.486 31.3075H110.061L108.676 22.522H108.487L107.196 30.2169H105.023L102 13.3002H103.89L106.094 27.1952H106.283L107.889 15.6056H109.369L111.289 28.3788H111.478L113.241 13.4248Z" fill="#763287"/>
<path d="M119.039 30.2184H117.308V15.0775H118.976V16.6352C119.48 15.0152 120.467 14.2051 121.936 14.2051C122.881 14.2051 123.605 14.5582 124.109 15.2644C124.612 15.9498 124.864 16.8636 124.864 18.006V29.5019H123.133V18.411C123.133 16.6871 122.576 15.8252 121.464 15.8252C120.729 15.8252 120.141 16.2302 119.7 17.0402C119.26 17.8502 119.039 18.8887 119.039 20.1556V30.2184Z" fill="#763287"/>
<path fill-rule="evenodd" clip-rule="evenodd" d="M14.4598 23.8942C14.4487 23.9253 14.4351 23.9555 14.4194 23.9844C14.4534 23.971 14.4884 23.9605 14.5241 23.9527C14.5748 23.9419 14.623 23.9218 14.6661 23.8935C14.6329 23.7793 14.586 23.6696 14.5263 23.5667C14.5178 23.6781 14.4955 23.7882 14.4598 23.8942Z" fill="#763287"/>
<path opacity="0.18" fill-rule="evenodd" clip-rule="evenodd" d="M11.6471 12.9103C10.8644 14.1619 9.98149 15.3565 9.13818 16.5741C7.82615 18.4685 6.63523 20.4486 5.37704 22.3785C4.12631 24.2973 2.96155 26.2591 1.85212 28.2562L1.78857 28.3709C2.16529 29.0298 2.61324 29.6465 3.12454 30.2098C4.18536 28.2821 5.16247 26.3115 6.18967 24.366C5.63571 24.3172 5.51683 23.6345 5.86298 23.3378C5.85929 23.2592 5.87201 23.1809 5.90029 23.1072C5.9286 23.0336 5.97187 22.9667 6.02745 22.9103C6.03098 22.9067 6.03473 22.9032 6.03866 22.9C6.10668 22.4036 6.26294 21.536 6.69954 21.1343C6.74737 21.0308 6.79748 20.928 6.84906 20.8274C6.99858 20.5492 7.36116 20.4738 7.63627 20.5818C7.55694 20.551 7.48397 20.5061 7.42096 20.4494C7.36383 20.3971 7.31785 20.3341 7.28575 20.264C7.25363 20.1939 7.23606 20.1181 7.23403 20.0411C7.23203 19.9642 7.2456 19.8876 7.27399 19.816C7.30236 19.7443 7.34497 19.679 7.39929 19.6239C7.4891 19.5361 7.60362 19.4773 7.72785 19.4551C7.85206 19.4329 7.98015 19.4484 8.0953 19.4996C8.11398 19.4996 8.13194 19.4929 8.15136 19.4929C8.2017 19.492 8.25195 19.4975 8.30088 19.5092C8.40025 19.4406 8.51835 19.4034 8.63954 19.4027C8.77488 19.3957 8.90854 19.4351 9.01784 19.5144C10.4383 17.3249 11.982 15.2093 13.5034 13.079C12.8904 12.9739 12.2699 12.9178 11.6479 12.9111" fill="#763287"/>
<path opacity="0.18" fill-rule="evenodd" clip-rule="evenodd" d="M12.5476 18.9688C13.7505 17.2357 14.765 15.5662 15.7989 13.7302C15.6927 13.6881 15.5858 13.6459 15.4774 13.6067C15.4596 13.6362 15.4394 13.6641 15.4169 13.6903C14.1101 15.2141 12.9722 16.8917 11.9346 18.627C12.2515 18.6463 12.5162 18.7247 12.5469 18.9688" fill="#763287"/>
<path opacity="0.18" fill-rule="evenodd" clip-rule="evenodd" d="M16.8972 14.2386C15.9194 15.9739 14.8787 17.6804 13.7573 19.3292C13.863 19.3713 13.9543 19.4424 14.0206 19.5341C14.0868 19.6259 14.1251 19.7344 14.1311 19.847C14.1874 19.9034 14.231 19.971 14.259 20.0452L14.5296 19.7427C15.8543 18.2551 17.1806 16.7676 18.5277 15.2986C18.0159 14.8981 17.4692 14.5431 16.8942 14.2378" fill="#763287"/>
<path fill-rule="evenodd" clip-rule="evenodd" d="M14.4152 22.9909C14.454 22.9026 14.5114 22.8234 14.5834 22.7586C14.4197 22.4883 14.294 22.197 14.2096 21.8932L13.8066 22.3436C14.0634 22.503 14.2734 22.7262 14.4159 22.9909" fill="#763287"/>
<path fill-rule="evenodd" clip-rule="evenodd" d="M14.6661 23.8936C14.6332 23.7796 14.5865 23.6702 14.5271 23.5674C14.518 23.6784 14.4954 23.7878 14.4598 23.8936C14.4489 23.9247 14.4354 23.9549 14.4194 23.9837C14.4531 23.9703 14.4879 23.9597 14.5233 23.9519C14.574 23.9411 14.6222 23.9213 14.6654 23.8928" fill="#763287"/>
<path fill-rule="evenodd" clip-rule="evenodd" d="M13.862 24.6093C13.8612 24.5005 13.8923 24.3939 13.9517 24.3023C13.7933 24.3226 13.6326 24.29 13.4949 24.2099C13.166 25.3935 11.8756 26.5933 10.829 25.8728C10.6533 26.1006 10.4806 26.3306 10.3057 26.5614C10.4452 26.6058 10.5872 26.6419 10.731 26.6695C10.7713 26.646 10.8142 26.6274 10.8589 26.614C10.9547 26.5851 11.0562 26.5806 11.1542 26.6007C11.257 26.5303 11.3799 26.4944 11.5048 26.4985C12.0326 26.4985 12.4939 26.3165 12.9058 26.0451C12.9958 25.8217 13.1644 25.6377 13.3805 25.5274C13.4705 25.4838 13.5647 25.449 13.6616 25.4237C13.7102 25.378 13.7566 25.3328 13.8037 25.2862C13.9103 25.1828 14.0509 25.1206 14.1999 25.1109C14.1027 25.0653 14.02 24.9945 13.9606 24.9058C13.9012 24.8173 13.8673 24.714 13.8627 24.6078" fill="#763287"/>
<path opacity="0.17" d="M16.6704 8.36377L16.5956 5.36206L13.1724 4.83392L13.1843 5.27775C14.3154 6.33995 15.4854 7.36072 16.6741 8.36155" fill="#763287"/>
<path opacity="0.17" d="M13.2034 6.11362L13.2198 6.73792C13.7267 7.33486 14.2926 7.88076 14.8578 8.4274C15.4918 9.03987 16.0951 9.67823 16.7216 10.2951L16.6917 9.15823C15.506 8.16851 14.3367 7.16103 13.2026 6.11435" fill="#763287"/>
<path opacity="0.17" d="M15.6863 10.95C14.8916 10.1534 14.0521 9.37742 13.2656 8.56226L13.3142 10.4404L16.8137 13.8874L16.7644 11.996C16.4 11.6508 16.0407 11.3024 15.6863 10.9507" fill="#763287"/>
<path d="M13.1816 17.5194V17.5253C15.023 18.0964 16.4412 19.6445 17.3405 21.746C16.785 19.3967 15.1104 18.0157 13.1831 17.5194" fill="#763287"/>
<path d="M20.3068 20.8272C20.2889 21.0705 20.268 21.6038 20.2164 21.8236C20.0078 22.7002 20.028 23.1676 19.0359 23.1713C18.1291 23.1764 17.9003 22.8237 17.3224 22.2629C17.3695 22.5248 17.7097 24.6684 16.3281 26.1834C17.546 25.3882 18.7451 25.0287 19.2677 26.6737C19.5219 27.4735 19.4022 28.0193 18.8558 28.5791C18.4513 28.9935 18.6816 29.6487 19.1241 29.0934C20.8339 26.9482 21.5912 23.4234 20.7307 20.6408C20.5767 20.1444 20.342 20.3131 20.3038 20.8264" fill="#763287"/>
<path d="M1.91462 27.5234C1.88643 27.442 1.89125 27.353 1.92807 27.2753C1.96489 27.1973 2.03085 27.1369 2.112 27.1062C2.19501 27.0762 2.2865 27.079 2.36742 27.1142C2.44833 27.1494 2.51242 27.214 2.54635 27.2947C3.48384 29.4836 5.97258 31.525 8.92036 32.5031C9.14464 32.5769 3.19676 31.4164 1.91462 27.5234Z" fill="#763287"/>
<path d="M18.5346 29.927C18.655 29.7871 18.6146 29.5831 18.492 29.5135C18.3694 29.444 18.1885 29.5023 18.0704 29.6429C16.8592 31.0787 14.2419 32.5611 11.4818 32.6757C11.271 32.6846 15.7565 33.1529 18.5346 29.93" fill="#763287"/>
<path d="M10.6679 2.39453L9.76928 2.18299L9.75732 1.71548L10.6552 1.92778L10.6679 2.39453Z" fill="#763287"/>
<path d="M10.6899 3.17283L9.79125 2.96201L9.7793 2.49451L10.6772 2.70608L10.6899 3.17283Z" fill="#763287"/>
<path d="M10.7099 3.95185L9.81127 3.74028L9.79932 3.2728L10.6972 3.48434L10.7099 3.95185Z" fill="#763287"/>
<path d="M12.5468 5.93053L11.2146 5.61321L11.2026 5.14645L12.5348 5.46378L12.5468 5.93053Z" fill="#763287"/>
<path d="M12.5427 6.7877L11.2105 6.47038L11.1978 6.00363L12.5307 6.32022L12.5427 6.7877Z" fill="#763287"/>
<path d="M12.5908 7.64411L11.2585 7.32603L11.2466 6.85928L12.5788 7.1766L12.5908 7.64411Z" fill="#763287"/>
<path d="M12.6394 10.2677L11.4746 10.2056L11.5068 9.73956L12.5489 9.80466L12.6394 10.2677Z" fill="#763287"/>
<path d="M4.79344 8.22772L4.5498 8.23377L4.66251 12.6706L4.90617 12.6645L4.79344 8.22772Z" fill="#763287"/>
<path d="M4.26024 11.221L4.0166 11.2271L4.05667 12.8036L4.3003 12.7976L4.26024 11.221Z" fill="#763287"/>
<path d="M5.44599 9.96417L4.0592 10.4657L4.05322 10.2319L5.44001 9.72968L5.44599 9.96417Z" fill="#763287"/>
<path d="M7.32728 6.57785L7.00293 6.58593L7.02765 7.55905L7.352 7.55099L7.32728 6.57785Z" fill="#763287"/>
<path d="M7.34016 7.8826L7.05615 7.88966L7.08088 8.8628L7.36488 8.85572L7.34016 7.8826Z" fill="#763287"/>
<path d="M5.47011 11.6858L5.12173 13.9145C5.12173 13.9145 3.06809 16.1077 3.02324 15.9531C2.97838 15.7985 2.98885 14.6305 2.98885 14.6305L3.70878 14.3391L3.54133 12.0556L3.5204 11.7723L4.11846 11.29L4.15808 12.0098L5.47011 11.6858Z" fill="#763287"/>
<path d="M11.4721 33.6372C5.49956 33.7851 0.519064 29.2447 0.370293 23.5143C0.344874 22.5395 0.646156 21.5275 1.15527 20.5378C0.670162 22.3108 0.683861 24.1813 1.19489 25.9472C1.44534 26.8104 1.69952 26.2831 1.71148 25.8541C1.72568 25.3362 1.92604 24.3207 2.30433 23.9634C3.01005 23.2975 3.55131 23.504 3.76812 24.0439C3.85111 24.0573 4.34377 25.5367 5.94362 26.5213C4.07463 23.4146 5.10333 20.7383 6.73085 19.3351C6.39591 19.4497 4.99941 20.58 4.64506 20.4949C3.23957 20.1606 4.03426 18.1922 4.52768 17.2609C5.01801 16.344 5.66241 15.5163 6.43329 14.8133L6.45273 14.7948C7.05688 14.3573 7.69823 13.9724 8.36956 13.6445L6.34657 13.6608L6.69421 13.4455L6.53871 5.1572L6.56188 5.1461L7.82008 5.22007L7.99055 11.5712H8.02568V11.583L8.19538 11.5667H8.23501L9.11867 11.4816L7.302 11.8774L7.33191 13.035L10.2064 12.7295L9.88346 0.289224L9.89391 0.282566L12.9105 1.21459L12.9254 1.80635L12.0747 2.19469L12.9494 2.72358L13.2132 12.8885H13.2588L11.4564 12.9899L13.913 13.2717L13.8188 8.88899L14.5313 8.94298L14.5574 9.93789L14.0812 9.90682L14.064 10.1413L14.5634 10.1731L14.621 12.3863L14.8647 12.3804L14.8393 11.3884L15.6519 11.4624L15.7147 13.8746L15.9009 13.8701C17.0686 14.4069 18.1299 15.1459 19.0348 16.0523C18.7427 15.5378 18.3697 15.0726 17.9298 14.6742L18.0412 14.2459L17.8917 8.36824L21.0204 9.2374L21.0421 10.0644L20.829 10.3011L18.8613 9.78328L18.8733 10.2508L20.8111 10.7545V10.7656L20.9897 11.0496L20.8208 11.1362V11.1554L18.8426 10.6377L18.8546 11.1051L20.8627 11.6325L21.0174 11.8441L20.8425 11.9765V12.0024L18.9047 11.4987L18.9167 11.9654L20.8544 12.4691V12.4825L21.0682 12.89L18.9645 12.3863L18.9765 12.8523L21.1228 13.3701L21.134 13.8065L19.0288 13.322L19.0407 13.7888L21.146 14.2725L21.2626 18.7736C21.0496 18.3549 20.82 17.9511 20.5898 17.5546C20.5898 17.5546 22.0103 20.5578 22.0356 22.9804C22.1022 28.7123 17.4461 33.4936 11.4736 33.643L11.4721 33.6372ZM1.79372 12.3722L3.08407 12.5202L3.13566 14.0477L2.41272 14.2992L2.42618 15.0655L1.86399 15.0795L1.79372 12.3722ZM13.7964 7.75946L14.5036 7.81272L14.5268 8.70628L13.8151 8.65228L13.7964 7.75946ZM13.7695 6.49754L14.4715 6.57151L14.4976 7.57453L13.7911 7.52053L13.7695 6.49754ZM13.7366 4.96562L14.4326 5.07362L14.4655 6.33777L13.7642 6.26379L13.7366 4.96562ZM14.8094 10.1879L15.6213 10.2389L15.6467 11.2287L14.834 11.1547L14.8094 10.1879ZM14.7772 8.96073L15.5899 9.02287L15.6153 10.0045L14.8034 9.95268L14.7772 8.96073ZM14.7481 7.8327L15.5607 7.89483L15.5839 8.78766L14.7735 8.72256L14.7481 7.8327ZM14.7159 6.60258L15.5293 6.69207L15.5547 7.65887L14.7421 7.59673L14.7159 6.60258ZM14.677 5.11207L15.4912 5.23782L15.5211 6.45464L14.7077 6.36439L14.677 5.11207ZM15.8949 11.4846L16.6118 11.5527L16.6238 11.4387L16.6851 13.8058C16.4475 13.6849 16.2008 13.5825 15.9472 13.4995L15.8949 11.4846ZM15.8627 10.2508L16.5939 10.2974L16.62 11.3182L15.8881 11.2486L15.8627 10.2508ZM15.8313 9.03766L16.5632 9.09388L16.5886 10.0621L15.8575 10.0163L15.8313 9.03766ZM15.8022 7.90889L16.5333 7.96511L16.5408 8.26097V8.30389L16.555 8.85718L15.8231 8.80169L15.8022 7.90889ZM15.7708 6.71427L16.5034 6.79564L16.5273 7.72988L15.7962 7.67366L15.7708 6.71427ZM15.7334 5.27111L16.4668 5.38429L16.4974 6.55892L15.7655 6.4783L15.7334 5.27111ZM16.7673 13.8087V13.8287L16.8526 13.8938C16.801 13.8657 16.7501 13.8376 16.6978 13.811L16.7673 13.8087ZM9.39078 3.24433L8.71048 3.61419L8.69852 3.14743L9.37882 2.77758L9.39078 3.24433ZM9.4162 4.21778L8.73215 4.4678L8.72019 4.00105L9.4035 3.75029L9.4162 4.21778ZM9.45358 5.65798L8.76952 5.90873L8.75757 5.44198L9.43789 5.07213L9.45358 5.65798ZM9.47675 6.553L8.79272 6.80376L8.78074 6.33701L9.46554 6.08478L9.47675 6.553ZM9.49919 7.40958L8.8159 7.66109L8.80392 7.19358L9.48723 6.94283L9.49919 7.40958ZM9.54778 9.26549L8.86074 9.39937L8.84804 8.91265L9.53508 8.77876L9.54778 9.26549ZM1.41618 13.9404L1.02743 14.0144L1.005 13.1408L1.39301 13.0668L1.41618 13.9404ZM3.90717 12.5675L3.51991 12.6918L3.4975 11.8182L3.88474 11.6947L3.90717 12.5675ZM4.63906 12.3619L4.27348 12.4854L4.25107 11.6118L4.61665 11.4883L4.63906 12.3619ZM21.6513 19.5991L21.4772 12.8841L21.2207 12.3937L21.214 12.1415L21.5131 11.9114L21.1938 11.475V11.3441L21.5018 11.1887L21.1737 10.6709L21.1684 10.4631L21.4047 10.1946L21.374 8.96961L17.7205 7.95548L16.7868 8.19959L16.712 5.18309L16.0997 5.06177L16.075 4.1046L15.0105 3.86568L15.0022 3.54095L14.6546 3.47363L14.5851 0.805535C14.5851 0.805535 14.2277 0.327688 14.2442 0.953474C14.2577 1.48014 14.2801 2.78868 14.2905 3.40484L13.9414 3.33605L13.6005 3.55056L13.214 3.46329L13.1916 2.59043L12.5815 2.22058L13.1751 1.94985L13.1512 1.0415L9.87672 0.0310677V0L8.38527 0.858793L7.79542 1.18944V1.19832L7.75579 1.22051L7.85373 4.98855L6.50805 4.91013L5.14669 5.57587L5.16687 6.34737L4.84614 6.22014L4.59421 6.34368C4.57329 5.62764 4.54786 4.6838 4.5389 4.0299C4.53292 3.54095 4.29592 4.03581 4.29592 4.03581L4.35872 6.45906L3.92362 6.67137L3.93931 7.26313L3.09603 7.61819L3.07135 8.25136L3.39806 8.57905L3.46832 11.293L3.22687 11.367V11.404L3.04444 11.4587L3.07285 12.2864L1.78474 12.1385V12.1052L1.6427 12.1481L0.515326 12.4876L0.617001 19.7633C0.179211 20.9703 -0.0288894 22.2471 0.00322279 23.5292C0.123586 28.1715 3.31134 32.0578 7.65561 33.4485L11.8683 33.9714C17.861 33.6247 22.615 28.7626 22.3989 22.9655C22.3599 21.8076 22.1065 20.6666 21.6513 19.5991Z" fill="#763287"/>
<path d="M15.9839 23.9346C15.3111 23.9516 14.6876 23.3428 14.3572 22.6948C14.6622 23.2031 15.1683 23.6276 15.7918 23.612H15.8725L15.9017 23.5382C16.1626 22.9043 16.0774 22.157 15.8038 21.5224C15.8521 21.6101 15.8936 21.7014 15.9278 21.7954C16.114 22.1594 16.4041 23.9249 15.9832 23.9352L15.9839 23.9346ZM15.557 24.6646C15.5184 24.7097 15.4834 24.7576 15.4524 24.8081C14.9904 24.7911 14.6928 24.6691 14.5441 24.4383C14.5319 24.3752 14.5327 24.3103 14.5465 24.2476C14.5602 24.1848 14.5866 24.1254 14.624 24.073C14.6439 24.0456 14.6736 24.0268 14.707 24.0203C15.178 24.0602 15.5294 24.138 15.6886 24.3843C15.6808 24.4901 15.6343 24.5896 15.5578 24.6639L15.557 24.6646ZM14.1366 24.7999C13.9422 24.6322 14.1366 24.198 14.3504 24.0602C14.2909 24.2006 14.2753 24.3552 14.3056 24.5041L14.3093 24.5234L14.319 24.5404C14.5029 24.8474 14.8528 25.0124 15.3851 25.042C15.1317 25.0795 14.5493 25.1551 14.1396 24.7993L14.1366 24.7999ZM14.1224 26.8601C13.6686 27.1663 13.084 27.3712 12.6332 27.3824C12.5686 27.3839 12.5039 27.3818 12.4396 27.3757C12.4281 27.1428 12.4636 26.9098 12.5441 26.6907C12.6245 26.4715 12.7484 26.2703 12.9083 26.0988C13.0763 25.9177 13.2793 25.7715 13.5052 25.669C13.7312 25.5664 13.9756 25.5096 14.2241 25.5021C14.5057 25.4943 14.785 25.5552 15.0375 25.6789C15.0726 26.0205 14.6076 26.5333 14.1246 26.8593L14.1224 26.8601ZM12.1929 27.1723C12.1929 27.1441 12.2003 27.1169 12.2041 27.0886C12.1912 27.2216 12.1912 27.3552 12.2041 27.488L12.2123 27.5761L12.3028 27.5925C12.4136 27.615 12.5269 27.6234 12.6399 27.6175C13.2417 27.6029 13.8735 27.3157 14.2637 27.0525C14.3686 26.981 14.4696 26.9042 14.5665 26.8224C13.3823 28.0539 11.5836 28.3795 12.1951 27.1708L12.1929 27.1723ZM11.4655 28.2551C11.2165 28.3402 10.4936 28.2795 10.5683 27.7883C10.5977 27.6236 10.6379 27.4608 10.6887 27.301C10.6787 27.4761 10.6923 27.6517 10.7291 27.8231L10.741 27.881L10.7971 27.906C10.9732 27.9945 11.1678 28.0409 11.3653 28.0414C11.4681 28.0381 11.5699 28.0209 11.668 27.9904C11.7028 27.9846 11.7349 27.9684 11.76 27.9438C11.6867 28.085 11.5686 28.2197 11.4677 28.2536L11.4655 28.2551ZM9.93587 27.4185C9.92219 27.4779 9.90395 27.5359 9.8813 27.5925C8.65823 27.3328 7.83961 26.7587 7.38507 25.8415C7.60533 25.7111 7.85652 25.6403 8.11322 25.6366C8.43072 25.6344 8.74408 25.7083 9.02645 25.8518C9.30884 25.9954 9.55188 26.2046 9.73477 26.4614C9.84782 26.6233 9.92245 26.8083 9.95307 27.0029C9.9655 27.141 9.96048 27.2801 9.93812 27.4172L9.93587 27.4185ZM11.5933 27.767C11.517 27.7909 11.4378 27.8047 11.3578 27.8078C11.219 27.8075 11.082 27.7773 10.9563 27.7188C10.8935 27.3623 10.9414 27.008 11.0797 26.8424C11.0967 26.8183 11.119 26.7982 11.1449 26.7837C11.1707 26.7692 11.1996 26.7608 11.2292 26.7587C11.3234 26.7587 11.4468 26.8275 11.5791 26.9623C11.6628 27.048 11.6688 27.6286 11.5955 27.7654L11.5933 27.767ZM6.71522 24.4605C6.89614 24.3578 7.19293 24.2157 7.45086 24.209C7.51021 24.2036 7.57005 24.2112 7.62622 24.231C7.68236 24.2507 7.73349 24.2824 7.77606 24.3236C7.80203 24.383 7.81281 24.4478 7.80746 24.5124C7.80212 24.5769 7.7808 24.6391 7.7454 24.6935C7.58393 24.9198 7.14733 25.0042 6.88567 25.0219L6.87521 25.0057C6.78326 24.8466 6.69953 24.709 6.71747 24.4584L6.71522 24.4605ZM9.79159 27.8691C9.63683 27.9859 8.25227 27.4563 7.65271 27.3084C7.21626 26.989 6.84338 26.5926 6.553 26.1388C6.43268 25.9484 6.32431 25.7508 6.22854 25.5472C6.34216 25.3503 6.45282 25.1536 6.56943 24.9554C6.59935 25.0167 6.63223 25.0731 6.66438 25.1262C6.68009 25.1514 6.69578 25.1774 6.70998 25.2002L6.74662 25.2624H6.82138C6.90585 25.2624 7.66242 25.2298 7.94802 24.8274C8.06912 24.6572 8.08632 24.4575 7.99884 24.223L7.99137 24.2038L7.97791 24.1883C7.91199 24.1142 7.82957 24.0566 7.7372 24.0194C7.64483 23.9823 7.54502 23.967 7.44562 23.9745C7.45086 23.968 7.45562 23.9611 7.45983 23.9538C7.44822 23.9624 7.43598 23.97 7.42319 23.9767C7.2822 23.9866 7.14342 24.0166 7.01127 24.0663C6.81765 24.0745 6.61131 24.0581 6.44758 24.0574C5.96164 24.0574 6.11788 23.1053 6.32274 22.4012C6.25259 22.819 6.26681 23.2463 6.3646 23.6586L6.38478 23.7416L6.473 23.7483C6.5319 23.7534 6.59108 23.7552 6.65017 23.7534C7.34618 23.7364 7.92109 23.2355 8.15584 22.453C8.17528 22.3872 8.19097 22.3183 8.20444 22.2488C8.50647 21.761 8.81199 21.2756 9.121 20.7923C9.21647 20.7297 9.29378 20.6436 9.34528 20.5423C9.35425 20.5268 9.36171 20.5127 9.3647 20.5075L9.39835 20.4735V20.4262C9.39835 20.4077 9.39835 20.3885 9.39835 20.3685L9.70336 19.8965C10.0861 20.1673 10.6169 20.2664 11.073 20.2538C11.671 20.239 12.2093 20.0504 12.5263 19.7471C12.382 20.0756 12.1076 20.37 11.6366 20.421C11.4513 20.7021 11.4767 20.5801 11.3107 20.8293L11.0864 20.9602C12.6324 20.9218 13.5385 22.1082 13.5669 23.2098C13.5791 23.6332 13.487 24.0533 13.2986 24.434C12.1659 26.2521 9.95307 25.3341 9.45665 24.7883C8.8713 24.144 8.82942 23.3324 8.85857 23.0979C9.03875 21.6105 9.86185 21.0372 10.9234 20.964C10.9234 20.964 8.83016 20.9122 8.53488 23.058C8.49525 23.3473 8.54385 24.2593 9.20772 24.9932C9.41148 25.2179 9.64279 25.4166 9.89624 25.5848L9.67196 26.0101C9.25227 25.6133 8.69297 25.3937 8.11248 25.3978C7.77334 25.4036 7.44351 25.5086 7.16452 25.6994L7.08452 25.7549L7.12415 25.8415C7.59514 26.866 8.50197 27.5273 9.82074 27.8121C9.80878 27.8322 9.8028 27.8499 9.79458 27.8669L9.79159 27.8691ZM7.49871 20.6244C8.02801 21.0202 8.09079 21.8079 7.91736 22.3908C7.75437 22.9412 7.31404 23.5367 6.58065 23.5218C6.33769 22.3435 6.86998 21.2191 7.5017 20.6222L7.49871 20.6244ZM8.06015 19.503C8.02046 19.5432 7.98605 19.5882 7.95773 19.6369C7.89442 19.721 7.85578 19.8207 7.846 19.9251C7.83625 20.0295 7.85575 20.1345 7.90241 20.2287C8.03698 20.515 8.39358 20.7568 8.76961 20.8271C8.50049 20.9373 8.1192 20.9011 7.64821 20.3293C7.33721 19.9483 7.76709 19.6458 8.06314 19.5008L8.06015 19.503ZM8.16256 19.7656L8.17005 19.7545C8.23086 19.6628 8.31287 19.5868 8.40927 19.5326C8.4489 19.506 8.49001 19.4779 8.52813 19.4468C8.53091 19.444 8.53466 19.4424 8.53861 19.4424C8.60115 19.4571 8.65725 19.4913 8.6986 19.54C8.91839 19.7442 9.12698 20.1473 9.14716 20.3951L9.12547 20.4314C9.07164 20.5246 9.01632 20.6096 8.93333 20.6111C8.9209 20.6121 8.90839 20.6121 8.89595 20.6111C8.573 20.5756 8.23433 20.3663 8.12595 20.1347C8.09542 20.0757 8.08294 20.0092 8.08996 19.9432C8.09699 19.8773 8.12326 19.8148 8.16555 19.7634L8.16256 19.7656ZM11.061 18.7759C11.6882 18.7604 12.2616 18.8743 12.5794 19.0718C12.5777 19.2497 12.5067 19.42 12.3813 19.5474C12.1189 19.8233 11.6142 20.0023 11.0625 20.0164C10.4465 20.0319 9.67495 19.8307 9.47758 19.2197C9.76093 18.9623 10.359 18.7914 11.0632 18.7744L11.061 18.7759ZM10.8666 18.1257L10.972 18.1213C11.6294 18.1073 12.2843 18.2061 12.9076 18.4135C12.8134 18.5515 12.7197 18.6899 12.6265 18.8284C12.2572 18.6317 11.6875 18.5252 11.0565 18.5414C10.892 18.5455 10.7278 18.5581 10.5646 18.5792L10.8666 18.1257ZM13.9826 19.7642C13.9801 19.9539 13.9031 20.1353 13.768 20.2701C13.6696 20.3798 13.5329 20.4488 13.3853 20.4632C13.2096 20.4676 13.1064 20.3352 13.0496 20.2161C13.0521 20.0262 13.1294 19.8447 13.2649 19.7102C13.3631 19.6006 13.4996 19.5318 13.6469 19.5178C13.8256 19.5112 13.9288 19.6428 13.9856 19.7619L13.9826 19.7642ZM13.7703 19.2937C13.728 19.2853 13.6848 19.2816 13.6417 19.2826C13.4288 19.297 13.2299 19.3928 13.087 19.5496C12.9953 19.6413 12.9233 19.7503 12.8752 19.8702C12.8272 19.99 12.8041 20.1183 12.8074 20.2472V20.2686L12.8156 20.2879C12.9756 20.6525 13.2447 20.6999 13.3905 20.6962C13.6058 20.6829 13.8071 20.5865 13.9512 20.4277C14.011 20.366 14.0627 20.2972 14.1052 20.2228C14.1151 20.2808 14.1151 20.34 14.1052 20.3981C14.0686 20.62 13.8062 20.9159 13.552 20.9566C13.3295 20.9731 13.1062 20.9387 12.8993 20.856C12.859 20.9344 12.8186 21.0113 12.7812 21.0904C12.7595 21.1341 12.7498 21.1563 12.7416 21.174C12.5464 21.0533 12.3367 20.9574 12.1173 20.8885C12.16 20.799 12.2018 20.7095 12.2452 20.62C12.5846 19.9195 12.9928 19.2575 13.395 18.5917C13.6033 18.678 13.8107 18.7767 14.017 18.8876L13.7703 19.2937ZM14.7197 20.529C15.4845 21.0194 16.0609 22.3708 15.7021 23.379C15.0539 23.3464 14.5583 22.7281 14.3654 22.1445C14.1919 21.609 14.1972 20.9151 14.722 20.5268L14.7197 20.529ZM16.7652 22.2192C16.4818 20.6851 15.2004 19.2538 14.1389 18.6864C13.0967 18.1302 12.0291 17.8609 10.9653 17.8875C9.01558 17.9364 7.19666 19.0311 6.21807 20.745C5.72866 21.5883 5.48166 22.5478 5.50381 23.5198C5.52594 24.4921 5.81638 25.4397 6.34367 26.2601C7.28938 27.7633 9.24957 28.7012 11.3361 28.6487C12.4497 28.6286 13.5362 28.3052 14.476 27.7136C14.6554 27.5998 15.4329 26.8047 15.5712 26.6108C16.0116 25.9894 16.7106 24.6877 16.81 23.8672C16.8639 23.3175 16.8499 22.7633 16.7681 22.217L16.7652 22.2192Z" fill="#763287"/>
</svg>
