<svg width="150" height="150" viewBox="0 0 150 150" fill="none" xmlns="http://www.w3.org/2000/svg">
<path d="M27.8311 102.281C32.6363 110.603 39.557 117.508 47.8914 122.293C56.2257 127.078 65.6773 129.574 75.2875 129.528C84.8978 129.482 94.325 126.896 102.613 122.031C110.901 117.166 117.756 110.196 122.481 101.827C127.206 93.4588 129.634 83.9895 129.519 74.3798C129.404 64.7701 126.75 55.3617 121.826 47.1087C116.901 38.8558 109.882 32.0518 101.48 27.3868C93.0777 22.7218 83.5912 20.3616 73.9826 20.5457L74.0239 22.7042C83.2519 22.5274 92.3626 24.794 100.432 29.2742C108.501 33.7544 115.242 40.2889 119.972 48.2149C124.701 56.1409 127.25 65.1766 127.361 74.4056C127.471 83.6347 125.139 92.7288 120.601 100.766C116.063 108.803 109.48 115.497 101.52 120.169C93.5606 124.841 84.5068 127.325 75.2772 127.369C66.0476 127.414 56.9705 125.016 48.9663 120.421C40.9621 115.825 34.3156 109.194 29.7007 101.201L27.8311 102.281Z" fill="white"/>
</svg>
