<svg width="21" height="21" viewBox="0 0 21 21" fill="none" xmlns="http://www.w3.org/2000/svg">
<path d="M0.603516 20.5967L2.02406 15.3961C1.14525 13.8672 0.687785 12.1457 0.687785 10.376C0.687785 4.83833 5.19018 0.335938 10.7279 0.335938C13.4125 0.335938 15.9405 1.38329 17.8306 3.28537C19.7206 5.18745 20.768 7.70349 20.768 10.3881C20.768 15.9258 16.2656 20.4282 10.7279 20.4282C9.04249 20.4282 7.39322 20.0068 5.92452 19.2002L0.603516 20.5967ZM6.17733 17.3824C7.59787 18.2251 8.94618 18.7307 10.7279 18.7307C15.3266 18.7307 19.0705 14.9868 19.0826 10.3881C19.0826 5.77733 15.3507 2.03336 10.7399 2.03336C6.14122 2.03336 2.38521 5.77733 2.38521 10.376C2.38521 12.254 2.93898 13.6625 3.85391 15.1312L3.01121 18.2131C3.01121 18.201 6.17733 17.3824 6.17733 17.3824ZM15.7961 12.7597C15.7359 12.6513 15.5673 12.5911 15.3145 12.4707C15.0617 12.3503 13.8338 11.7364 13.6051 11.6521C13.3763 11.5678 13.2078 11.5317 13.0393 11.7725C12.8707 12.0253 12.3892 12.5911 12.2447 12.7597C12.1003 12.9282 11.9558 12.9523 11.703 12.8198C11.4502 12.6995 10.6436 12.4346 9.68053 11.5799C8.93414 10.9178 8.42853 10.0871 8.28407 9.84634C8.13961 9.59353 8.27203 9.46111 8.39241 9.32868C8.50076 9.22034 8.64522 9.03976 8.76561 8.88326C8.89803 8.7388 8.93414 8.63045 9.01841 8.46191C9.10268 8.29337 9.06657 8.14891 8.99434 8.01649C8.93414 7.8961 8.42853 6.65614 8.22387 6.15052C8.01922 5.65695 7.81457 5.72918 7.65806 5.71714L7.17653 5.7051C7.00799 5.7051 6.74314 5.76529 6.50237 6.0181C6.27364 6.27091 5.62356 6.87283 5.62356 8.1128C5.62356 9.35276 6.52645 10.5446 6.64683 10.7131C6.76722 10.8816 8.41649 13.4097 10.9325 14.5052C11.5345 14.758 12.004 14.9145 12.3651 15.0349C12.967 15.2275 13.5088 15.2035 13.9422 15.1312C14.4237 15.059 15.4229 14.5293 15.6396 13.9394C15.8563 13.3736 15.8563 12.868 15.7961 12.7597Z" fill="white"/>
</svg>
